<mxfile host="app.diagrams.net" modified="2023-03-29T05:54:52.559Z" agent="5.0 (Windows NT 10.0; Win64; x64) AppleWebKit/537.36 (KHTML, like Gecko) Chrome/111.0.0.0 Safari/537.36" etag="9kd0DwYa40d2QEcCEO-8" version="20.8.16" type="github" pages="2">
  <diagram id="R2lEEEUBdFMjLlhIrx00" name="Page-1">
    <mxGraphModel dx="1434" dy="788" grid="1" gridSize="10" guides="1" tooltips="1" connect="1" arrows="1" fold="1" page="1" pageScale="1" pageWidth="850" pageHeight="1100" math="0" shadow="0" extFonts="Permanent Marker^https://fonts.googleapis.com/css?family=Permanent+Marker">
      <root>
        <mxCell id="0" />
        <mxCell id="1" parent="0" />
        <mxCell id="cAx3dARf_b8kukLLjJno-4" value="account" style="rounded=1;arcSize=10;whiteSpace=wrap;html=1;align=center;" vertex="1" parent="1">
          <mxGeometry x="620" y="460" width="100" height="40" as="geometry" />
        </mxCell>
        <mxCell id="cAx3dARf_b8kukLLjJno-5" value="user" style="whiteSpace=wrap;html=1;align=center;" vertex="1" parent="1">
          <mxGeometry x="190" y="460" width="100" height="40" as="geometry" />
        </mxCell>
        <mxCell id="cAx3dARf_b8kukLLjJno-8" value="has" style="shape=rhombus;perimeter=rhombusPerimeter;whiteSpace=wrap;html=1;align=center;" vertex="1" parent="1">
          <mxGeometry x="420" y="450" width="70" height="60" as="geometry" />
        </mxCell>
        <mxCell id="cAx3dARf_b8kukLLjJno-16" value="" style="endArrow=none;html=1;rounded=0;entryX=1;entryY=0.5;entryDx=0;entryDy=0;exitX=0;exitY=0.5;exitDx=0;exitDy=0;" edge="1" parent="1" source="cAx3dARf_b8kukLLjJno-8" target="cAx3dARf_b8kukLLjJno-5">
          <mxGeometry relative="1" as="geometry">
            <mxPoint x="605" y="560" as="sourcePoint" />
            <mxPoint x="445" y="560" as="targetPoint" />
            <Array as="points" />
          </mxGeometry>
        </mxCell>
        <mxCell id="cAx3dARf_b8kukLLjJno-17" value="1" style="resizable=0;html=1;align=right;verticalAlign=bottom;" connectable="0" vertex="1" parent="cAx3dARf_b8kukLLjJno-16">
          <mxGeometry x="1" relative="1" as="geometry" />
        </mxCell>
        <mxCell id="cAx3dARf_b8kukLLjJno-20" value="" style="endArrow=none;html=1;rounded=0;entryX=0;entryY=0.5;entryDx=0;entryDy=0;exitX=1;exitY=0.5;exitDx=0;exitDy=0;" edge="1" parent="1" source="cAx3dARf_b8kukLLjJno-8" target="cAx3dARf_b8kukLLjJno-4">
          <mxGeometry relative="1" as="geometry">
            <mxPoint x="500" y="480" as="sourcePoint" />
            <mxPoint x="600" y="480" as="targetPoint" />
          </mxGeometry>
        </mxCell>
        <mxCell id="cAx3dARf_b8kukLLjJno-21" value="N" style="resizable=0;html=1;align=right;verticalAlign=bottom;" connectable="0" vertex="1" parent="cAx3dARf_b8kukLLjJno-20">
          <mxGeometry x="1" relative="1" as="geometry" />
        </mxCell>
        <mxCell id="cAx3dARf_b8kukLLjJno-23" value="username" style="ellipse;whiteSpace=wrap;html=1;align=center;" vertex="1" parent="1">
          <mxGeometry x="90" y="550" width="100" height="40" as="geometry" />
        </mxCell>
        <mxCell id="cAx3dARf_b8kukLLjJno-26" value="" style="endArrow=none;html=1;rounded=0;exitX=1;exitY=0;exitDx=0;exitDy=0;entryX=0;entryY=1;entryDx=0;entryDy=0;" edge="1" parent="1" source="cAx3dARf_b8kukLLjJno-27" target="cAx3dARf_b8kukLLjJno-5">
          <mxGeometry relative="1" as="geometry">
            <mxPoint x="440" y="480" as="sourcePoint" />
            <mxPoint x="600" y="480" as="targetPoint" />
          </mxGeometry>
        </mxCell>
        <mxCell id="cAx3dARf_b8kukLLjJno-27" value="uid" style="ellipse;whiteSpace=wrap;html=1;align=center;fontStyle=4;" vertex="1" parent="1">
          <mxGeometry x="10" y="520" width="100" height="40" as="geometry" />
        </mxCell>
        <mxCell id="cAx3dARf_b8kukLLjJno-29" value="" style="endArrow=none;html=1;rounded=0;exitX=0.5;exitY=0;exitDx=0;exitDy=0;entryX=0.25;entryY=1;entryDx=0;entryDy=0;" edge="1" parent="1" source="cAx3dARf_b8kukLLjJno-23" target="cAx3dARf_b8kukLLjJno-5">
          <mxGeometry relative="1" as="geometry">
            <mxPoint x="160" y="550" as="sourcePoint" />
            <mxPoint x="215" y="510" as="targetPoint" />
          </mxGeometry>
        </mxCell>
        <mxCell id="cAx3dARf_b8kukLLjJno-30" value="first name" style="ellipse;whiteSpace=wrap;html=1;align=center;" vertex="1" parent="1">
          <mxGeometry x="10" y="460" width="100" height="40" as="geometry" />
        </mxCell>
        <mxCell id="cAx3dARf_b8kukLLjJno-31" value="" style="endArrow=none;html=1;rounded=0;exitX=1;exitY=0.5;exitDx=0;exitDy=0;entryX=0;entryY=0.5;entryDx=0;entryDy=0;" edge="1" parent="1" source="cAx3dARf_b8kukLLjJno-30" target="cAx3dARf_b8kukLLjJno-5">
          <mxGeometry relative="1" as="geometry">
            <mxPoint x="160" y="540" as="sourcePoint" />
            <mxPoint x="200" y="510" as="targetPoint" />
          </mxGeometry>
        </mxCell>
        <mxCell id="cAx3dARf_b8kukLLjJno-32" value="lastname" style="ellipse;whiteSpace=wrap;html=1;align=center;" vertex="1" parent="1">
          <mxGeometry x="20" y="400" width="100" height="40" as="geometry" />
        </mxCell>
        <mxCell id="cAx3dARf_b8kukLLjJno-33" value="" style="endArrow=none;html=1;rounded=0;exitX=1;exitY=0.5;exitDx=0;exitDy=0;entryX=0;entryY=0;entryDx=0;entryDy=0;" edge="1" source="cAx3dARf_b8kukLLjJno-32" parent="1" target="cAx3dARf_b8kukLLjJno-5">
          <mxGeometry relative="1" as="geometry">
            <mxPoint x="170" y="480" as="sourcePoint" />
            <mxPoint x="200" y="420" as="targetPoint" />
          </mxGeometry>
        </mxCell>
        <mxCell id="cAx3dARf_b8kukLLjJno-35" value="date of birth" style="ellipse;whiteSpace=wrap;html=1;align=center;" vertex="1" parent="1">
          <mxGeometry x="80" y="360" width="100" height="40" as="geometry" />
        </mxCell>
        <mxCell id="cAx3dARf_b8kukLLjJno-36" value="" style="endArrow=none;html=1;rounded=0;exitX=1;exitY=1;exitDx=0;exitDy=0;entryX=0.25;entryY=0;entryDx=0;entryDy=0;" edge="1" source="cAx3dARf_b8kukLLjJno-35" parent="1" target="cAx3dARf_b8kukLLjJno-5">
          <mxGeometry relative="1" as="geometry">
            <mxPoint x="230" y="440" as="sourcePoint" />
            <mxPoint x="250" y="420" as="targetPoint" />
          </mxGeometry>
        </mxCell>
        <mxCell id="cAx3dARf_b8kukLLjJno-39" value="" style="endArrow=none;html=1;rounded=0;exitX=0.5;exitY=1;exitDx=0;exitDy=0;" edge="1" source="cAx3dARf_b8kukLLjJno-40" parent="1" target="cAx3dARf_b8kukLLjJno-5">
          <mxGeometry relative="1" as="geometry">
            <mxPoint x="210" y="380" as="sourcePoint" />
            <mxPoint x="295" y="440" as="targetPoint" />
          </mxGeometry>
        </mxCell>
        <mxCell id="cAx3dARf_b8kukLLjJno-40" value="age" style="ellipse;whiteSpace=wrap;html=1;align=center;dashed=1;" vertex="1" parent="1">
          <mxGeometry x="190" y="340" width="100" height="40" as="geometry" />
        </mxCell>
        <mxCell id="cAx3dARf_b8kukLLjJno-42" value="gender" style="ellipse;whiteSpace=wrap;html=1;align=center;" vertex="1" parent="1">
          <mxGeometry x="190" y="560" width="100" height="40" as="geometry" />
        </mxCell>
        <mxCell id="cAx3dARf_b8kukLLjJno-43" value="" style="endArrow=none;html=1;rounded=0;exitX=0.5;exitY=0;exitDx=0;exitDy=0;entryX=0.5;entryY=1;entryDx=0;entryDy=0;" edge="1" source="cAx3dARf_b8kukLLjJno-42" parent="1" target="cAx3dARf_b8kukLLjJno-5">
          <mxGeometry relative="1" as="geometry">
            <mxPoint x="260" y="585" as="sourcePoint" />
            <mxPoint x="215" y="510" as="targetPoint" />
          </mxGeometry>
        </mxCell>
        <mxCell id="cAx3dARf_b8kukLLjJno-44" value="email" style="ellipse;whiteSpace=wrap;html=1;align=center;" vertex="1" parent="1">
          <mxGeometry x="300" y="340" width="100" height="40" as="geometry" />
        </mxCell>
        <mxCell id="cAx3dARf_b8kukLLjJno-45" value="" style="endArrow=none;html=1;rounded=0;exitX=0.5;exitY=1;exitDx=0;exitDy=0;entryX=0.68;entryY=-0.025;entryDx=0;entryDy=0;entryPerimeter=0;" edge="1" source="cAx3dARf_b8kukLLjJno-44" parent="1" target="cAx3dARf_b8kukLLjJno-5">
          <mxGeometry relative="1" as="geometry">
            <mxPoint x="270" y="595" as="sourcePoint" />
            <mxPoint x="250" y="510" as="targetPoint" />
          </mxGeometry>
        </mxCell>
        <mxCell id="cAx3dARf_b8kukLLjJno-46" value="mobile number" style="ellipse;whiteSpace=wrap;html=1;align=center;" vertex="1" parent="1">
          <mxGeometry x="300" y="560" width="100" height="40" as="geometry" />
        </mxCell>
        <mxCell id="cAx3dARf_b8kukLLjJno-47" value="" style="endArrow=none;html=1;rounded=0;exitX=0.5;exitY=0;exitDx=0;exitDy=0;entryX=0.75;entryY=1;entryDx=0;entryDy=0;" edge="1" source="cAx3dARf_b8kukLLjJno-46" parent="1" target="cAx3dARf_b8kukLLjJno-5">
          <mxGeometry relative="1" as="geometry">
            <mxPoint x="350" y="705" as="sourcePoint" />
            <mxPoint x="330" y="620" as="targetPoint" />
          </mxGeometry>
        </mxCell>
        <mxCell id="cAx3dARf_b8kukLLjJno-50" value="" style="endArrow=none;html=1;rounded=0;exitX=0.4;exitY=0.25;exitDx=0;exitDy=0;entryX=0;entryY=1;entryDx=0;entryDy=0;exitPerimeter=0;" edge="1" parent="1" source="cAx3dARf_b8kukLLjJno-55" target="cAx3dARf_b8kukLLjJno-4">
          <mxGeometry relative="1" as="geometry">
            <mxPoint x="550" y="580" as="sourcePoint" />
            <mxPoint x="250" y="510" as="targetPoint" />
            <Array as="points" />
          </mxGeometry>
        </mxCell>
        <mxCell id="cAx3dARf_b8kukLLjJno-51" value="uid" style="ellipse;whiteSpace=wrap;html=1;align=center;" vertex="1" parent="1">
          <mxGeometry x="600" y="590" width="100" height="40" as="geometry" />
        </mxCell>
        <mxCell id="cAx3dARf_b8kukLLjJno-52" value="" style="endArrow=none;html=1;rounded=0;exitX=0.5;exitY=0;exitDx=0;exitDy=0;entryX=0.25;entryY=1;entryDx=0;entryDy=0;" edge="1" source="cAx3dARf_b8kukLLjJno-51" parent="1" target="cAx3dARf_b8kukLLjJno-4">
          <mxGeometry relative="1" as="geometry">
            <mxPoint x="370" y="630" as="sourcePoint" />
            <mxPoint x="655" y="520" as="targetPoint" />
            <Array as="points" />
          </mxGeometry>
        </mxCell>
        <mxCell id="cAx3dARf_b8kukLLjJno-53" value="password" style="ellipse;whiteSpace=wrap;html=1;align=center;" vertex="1" parent="1">
          <mxGeometry x="710" y="590" width="100" height="40" as="geometry" />
        </mxCell>
        <mxCell id="cAx3dARf_b8kukLLjJno-54" value="" style="endArrow=none;html=1;rounded=0;exitX=0.5;exitY=0;exitDx=0;exitDy=0;entryX=0.5;entryY=1;entryDx=0;entryDy=0;" edge="1" parent="1" source="cAx3dARf_b8kukLLjJno-53" target="cAx3dARf_b8kukLLjJno-4">
          <mxGeometry relative="1" as="geometry">
            <mxPoint x="650" y="620" as="sourcePoint" />
            <mxPoint x="655" y="510" as="targetPoint" />
            <Array as="points" />
          </mxGeometry>
        </mxCell>
        <mxCell id="cAx3dARf_b8kukLLjJno-55" value="Attribute" style="ellipse;whiteSpace=wrap;html=1;align=center;fontStyle=4;" vertex="1" parent="1">
          <mxGeometry x="490" y="580" width="100" height="40" as="geometry" />
        </mxCell>
        <mxCell id="cAx3dARf_b8kukLLjJno-56" value="add" style="shape=rhombus;perimeter=rhombusPerimeter;whiteSpace=wrap;html=1;align=center;" vertex="1" parent="1">
          <mxGeometry x="400" y="650" width="90" height="60" as="geometry" />
        </mxCell>
        <mxCell id="cAx3dARf_b8kukLLjJno-58" value="" style="endArrow=none;html=1;rounded=0;exitX=0.5;exitY=1;exitDx=0;exitDy=0;entryX=0.5;entryY=0;entryDx=0;entryDy=0;" edge="1" parent="1" source="cAx3dARf_b8kukLLjJno-56" target="cAx3dARf_b8kukLLjJno-62">
          <mxGeometry relative="1" as="geometry">
            <mxPoint x="120" y="680" as="sourcePoint" />
            <mxPoint x="445" y="800" as="targetPoint" />
          </mxGeometry>
        </mxCell>
        <mxCell id="cAx3dARf_b8kukLLjJno-59" value="N" style="resizable=0;html=1;align=right;verticalAlign=bottom;" connectable="0" vertex="1" parent="cAx3dARf_b8kukLLjJno-58">
          <mxGeometry x="1" relative="1" as="geometry" />
        </mxCell>
        <mxCell id="cAx3dARf_b8kukLLjJno-60" value="" style="endArrow=none;html=1;rounded=0;entryX=1;entryY=0.5;entryDx=0;entryDy=0;exitX=0.5;exitY=0;exitDx=0;exitDy=0;" edge="1" parent="1" source="cAx3dARf_b8kukLLjJno-56" target="cAx3dARf_b8kukLLjJno-5">
          <mxGeometry relative="1" as="geometry">
            <mxPoint x="440" y="640" as="sourcePoint" />
            <mxPoint x="300" y="490" as="targetPoint" />
            <Array as="points">
              <mxPoint x="440" y="520" />
            </Array>
          </mxGeometry>
        </mxCell>
        <mxCell id="cAx3dARf_b8kukLLjJno-61" value="1" style="resizable=0;html=1;align=right;verticalAlign=bottom;" connectable="0" vertex="1" parent="cAx3dARf_b8kukLLjJno-60">
          <mxGeometry x="1" relative="1" as="geometry" />
        </mxCell>
        <mxCell id="cAx3dARf_b8kukLLjJno-62" value="post" style="whiteSpace=wrap;html=1;align=center;" vertex="1" parent="1">
          <mxGeometry x="395" y="800" width="100" height="40" as="geometry" />
        </mxCell>
        <mxCell id="cAx3dARf_b8kukLLjJno-69" value="like_id" style="ellipse;whiteSpace=wrap;html=1;align=center;" vertex="1" parent="1">
          <mxGeometry x="230" y="740" width="100" height="40" as="geometry" />
        </mxCell>
        <mxCell id="cAx3dARf_b8kukLLjJno-71" value="caption" style="ellipse;whiteSpace=wrap;html=1;align=center;" vertex="1" parent="1">
          <mxGeometry x="340" y="880" width="100" height="40" as="geometry" />
        </mxCell>
        <mxCell id="cAx3dARf_b8kukLLjJno-72" value="comment_id" style="ellipse;whiteSpace=wrap;html=1;align=center;" vertex="1" parent="1">
          <mxGeometry x="310" y="710" width="100" height="40" as="geometry" />
        </mxCell>
        <mxCell id="cAx3dARf_b8kukLLjJno-73" value="" style="endArrow=none;html=1;rounded=0;entryX=0.57;entryY=1.075;entryDx=0;entryDy=0;entryPerimeter=0;" edge="1" parent="1" source="cAx3dARf_b8kukLLjJno-62" target="cAx3dARf_b8kukLLjJno-72">
          <mxGeometry relative="1" as="geometry">
            <mxPoint x="565" y="960" as="sourcePoint" />
            <mxPoint x="480" y="900" as="targetPoint" />
          </mxGeometry>
        </mxCell>
        <mxCell id="cAx3dARf_b8kukLLjJno-74" value="" style="endArrow=none;html=1;rounded=0;entryX=1;entryY=1;entryDx=0;entryDy=0;exitX=0.25;exitY=0;exitDx=0;exitDy=0;" edge="1" parent="1" source="cAx3dARf_b8kukLLjJno-62" target="cAx3dARf_b8kukLLjJno-69">
          <mxGeometry relative="1" as="geometry">
            <mxPoint x="430" y="810" as="sourcePoint" />
            <mxPoint x="407" y="773" as="targetPoint" />
          </mxGeometry>
        </mxCell>
        <mxCell id="cAx3dARf_b8kukLLjJno-75" value="" style="endArrow=none;html=1;rounded=0;entryX=1;entryY=0.5;entryDx=0;entryDy=0;exitX=0;exitY=0.5;exitDx=0;exitDy=0;" edge="1" parent="1" source="cAx3dARf_b8kukLLjJno-62" target="cAx3dARf_b8kukLLjJno-78">
          <mxGeometry relative="1" as="geometry">
            <mxPoint x="430" y="810" as="sourcePoint" />
            <mxPoint x="290" y="820" as="targetPoint" />
          </mxGeometry>
        </mxCell>
        <mxCell id="cAx3dARf_b8kukLLjJno-76" value="" style="endArrow=none;html=1;rounded=0;exitX=0;exitY=1;exitDx=0;exitDy=0;entryX=0.79;entryY=0.125;entryDx=0;entryDy=0;entryPerimeter=0;" edge="1" parent="1" source="cAx3dARf_b8kukLLjJno-62" target="cAx3dARf_b8kukLLjJno-79">
          <mxGeometry relative="1" as="geometry">
            <mxPoint x="405" y="830" as="sourcePoint" />
            <mxPoint x="317.7302761081751" y="866.8764257015041" as="targetPoint" />
          </mxGeometry>
        </mxCell>
        <mxCell id="cAx3dARf_b8kukLLjJno-77" value="" style="endArrow=none;html=1;rounded=0;exitX=0.25;exitY=1;exitDx=0;exitDy=0;entryX=0.5;entryY=0;entryDx=0;entryDy=0;" edge="1" parent="1" source="cAx3dARf_b8kukLLjJno-62" target="cAx3dARf_b8kukLLjJno-71">
          <mxGeometry relative="1" as="geometry">
            <mxPoint x="405" y="850" as="sourcePoint" />
            <mxPoint x="327.7302761081751" y="876.8764257015041" as="targetPoint" />
          </mxGeometry>
        </mxCell>
        <mxCell id="cAx3dARf_b8kukLLjJno-78" value="postId" style="ellipse;whiteSpace=wrap;html=1;align=center;fontStyle=4;" vertex="1" parent="1">
          <mxGeometry x="200" y="800" width="100" height="40" as="geometry" />
        </mxCell>
        <mxCell id="cAx3dARf_b8kukLLjJno-79" value="location" style="ellipse;shape=doubleEllipse;margin=3;whiteSpace=wrap;html=1;align=center;" vertex="1" parent="1">
          <mxGeometry x="220" y="870" width="100" height="40" as="geometry" />
        </mxCell>
        <mxCell id="cAx3dARf_b8kukLLjJno-81" value="" style="endArrow=none;html=1;rounded=0;exitX=1;exitY=0;exitDx=0;exitDy=0;" edge="1" parent="1" source="cAx3dARf_b8kukLLjJno-5" target="cAx3dARf_b8kukLLjJno-82">
          <mxGeometry relative="1" as="geometry">
            <mxPoint x="340" y="280" as="sourcePoint" />
            <mxPoint x="480" y="360" as="targetPoint" />
          </mxGeometry>
        </mxCell>
        <mxCell id="cAx3dARf_b8kukLLjJno-82" value="has" style="shape=rhombus;perimeter=rhombusPerimeter;whiteSpace=wrap;html=1;align=center;" vertex="1" parent="1">
          <mxGeometry x="410" y="330" width="120" height="60" as="geometry" />
        </mxCell>
        <mxCell id="cAx3dARf_b8kukLLjJno-83" value="likes" style="shape=ext;margin=3;double=1;whiteSpace=wrap;html=1;align=center;" vertex="1" parent="1">
          <mxGeometry x="420" y="200" width="100" height="40" as="geometry" />
        </mxCell>
        <mxCell id="cAx3dARf_b8kukLLjJno-85" value="" style="endArrow=none;html=1;rounded=0;exitX=0.5;exitY=0;exitDx=0;exitDy=0;entryX=0.5;entryY=1;entryDx=0;entryDy=0;" edge="1" parent="1" source="cAx3dARf_b8kukLLjJno-82" target="cAx3dARf_b8kukLLjJno-83">
          <mxGeometry relative="1" as="geometry">
            <mxPoint x="390" y="300" as="sourcePoint" />
            <mxPoint x="550" y="300" as="targetPoint" />
          </mxGeometry>
        </mxCell>
        <mxCell id="cAx3dARf_b8kukLLjJno-86" value="N" style="resizable=0;html=1;align=right;verticalAlign=bottom;" connectable="0" vertex="1" parent="cAx3dARf_b8kukLLjJno-85">
          <mxGeometry x="1" relative="1" as="geometry" />
        </mxCell>
        <mxCell id="cAx3dARf_b8kukLLjJno-87" value="like_id" style="ellipse;whiteSpace=wrap;html=1;align=center;fontStyle=4;" vertex="1" parent="1">
          <mxGeometry x="260" y="200" width="100" height="40" as="geometry" />
        </mxCell>
        <mxCell id="cAx3dARf_b8kukLLjJno-88" value="" style="endArrow=none;html=1;rounded=0;entryX=0;entryY=0.5;entryDx=0;entryDy=0;exitX=1;exitY=0.5;exitDx=0;exitDy=0;" edge="1" parent="1" source="cAx3dARf_b8kukLLjJno-87" target="cAx3dARf_b8kukLLjJno-83">
          <mxGeometry relative="1" as="geometry">
            <mxPoint x="340" y="480" as="sourcePoint" />
            <mxPoint x="500" y="480" as="targetPoint" />
            <Array as="points" />
          </mxGeometry>
        </mxCell>
        <mxCell id="cAx3dARf_b8kukLLjJno-89" value="uid" style="ellipse;whiteSpace=wrap;html=1;align=center;fontStyle=4;" vertex="1" parent="1">
          <mxGeometry x="280" y="130" width="100" height="40" as="geometry" />
        </mxCell>
        <mxCell id="cAx3dARf_b8kukLLjJno-90" value="" style="endArrow=none;html=1;rounded=0;entryX=0;entryY=0;entryDx=0;entryDy=0;exitX=1;exitY=1;exitDx=0;exitDy=0;" edge="1" source="cAx3dARf_b8kukLLjJno-89" parent="1" target="cAx3dARf_b8kukLLjJno-83">
          <mxGeometry relative="1" as="geometry">
            <mxPoint x="360" y="410" as="sourcePoint" />
            <mxPoint x="440" y="150" as="targetPoint" />
            <Array as="points" />
          </mxGeometry>
        </mxCell>
        <mxCell id="1xty656yizIFkWR6XNAY-1" value="no_of_likes" style="ellipse;whiteSpace=wrap;html=1;align=center;" vertex="1" parent="1">
          <mxGeometry x="420" y="120" width="100" height="40" as="geometry" />
        </mxCell>
        <mxCell id="1xty656yizIFkWR6XNAY-2" value="" style="endArrow=none;html=1;rounded=0;exitX=0.41;exitY=1.1;exitDx=0;exitDy=0;exitPerimeter=0;entryX=0.5;entryY=0;entryDx=0;entryDy=0;" edge="1" parent="1" source="1xty656yizIFkWR6XNAY-1" target="cAx3dARf_b8kukLLjJno-83">
          <mxGeometry relative="1" as="geometry">
            <mxPoint x="620" y="200" as="sourcePoint" />
            <mxPoint x="780" y="200" as="targetPoint" />
          </mxGeometry>
        </mxCell>
      </root>
    </mxGraphModel>
  </diagram>
  <diagram id="vMZz_6wHv2lzmCny60pE" name="Page-2">
    <mxGraphModel dx="1434" dy="788" grid="1" gridSize="10" guides="1" tooltips="1" connect="1" arrows="1" fold="1" page="1" pageScale="1" pageWidth="850" pageHeight="1100" math="0" shadow="0">
      <root>
        <mxCell id="0" />
        <mxCell id="1" parent="0" />
      </root>
    </mxGraphModel>
  </diagram>
</mxfile>
